M48
METRIC,LZ,000.000
;FILE_FORMAT=3:3
;TYPE=PLATED
;Layer: PTH_Through
;EasyEDA v6.5.40, 2024-02-02 08:41:29
;10
;Gerber Generator version 0.2
;Holesize 1 = 0.889 mm
T01C0.889
;Holesize 2 = 0.900 mm
T02C0.900
;Holesize 3 = 0.901 mm
T03C0.901
;Holesize 4 = 0.915 mm
T04C0.915
;Holesize 5 = 1.101 mm
T05C1.101
;Holesize 6 = 1.301 mm
T06C1.301
%
G05
G90
T01
X032131Y046355
X032131Y043815
X052324Y046482
X052324Y043942
X063500Y043815
X063500Y046355
X042164Y046609
X042164Y044069
X033401Y052959
X033401Y050419
X054102Y052959
X054102Y050419
X063881Y052959
X063881Y050419
X043688Y053086
X043688Y050546
X005715Y049657
X008255Y049657
X040005Y053086
X040005Y050546
X050419Y052959
X050419Y050419
X060452Y052959
X060452Y050419
X029718Y052959
X029718Y050419
T02
X030480Y029464
X030480Y039624
X051054Y029464
X051054Y039624
X065532Y029464
X065532Y039624
X040640Y029464
X040640Y039624
X033782Y039624
X033782Y029464
X053721Y029464
X053721Y039624
X062230Y039624
X062230Y029464
X043942Y039624
X043942Y029464
T03
X005749Y042133
X020989Y039593
X020989Y034513
X020989Y029433
X020989Y024353
X020989Y019273
X020989Y014193
X020989Y009113
X005749Y006573
X005749Y011653
X005749Y016733
X005749Y021813
X005749Y026893
X005749Y031973
X005749Y037053
X005749Y039593
X005749Y034513
X005749Y029433
X005749Y024353
X005749Y019273
X005749Y014193
X005749Y009113
X020989Y006573
X020989Y011653
X020989Y016733
X020989Y021813
X020989Y026893
X020989Y031973
X020989Y037053
X020989Y042133
X028575Y014224
X028575Y021844
X028575Y019304
X028575Y016764
T04
X010795Y049657
T05
X061214Y006604
X061214Y009144
X061214Y011684
X061214Y014224
X061214Y016764
X061214Y019304
X061214Y021844
X061214Y024384
X043180Y024384
X043180Y021844
X043180Y019304
X043180Y016764
X043180Y014224
X043180Y011684
X043180Y009144
X043180Y006604
X037338Y019304
X037338Y024384
T06
X003211Y055118
X008219Y055118
M30
