G04 Layer: BottomLayer*
G04 EasyEDA v6.5.40, 2024-02-02 08:41:29*
G04 Gerber Generator version 0.2*
G04 Scale: 100 percent, Rotated: No, Reflected: No *
G04 Dimensions in millimeters *
G04 leading zeros omitted , absolute positions ,4 integer and 5 decimal *
%FSLAX45Y45*%
%MOMM*%

%AMMACRO1*1,1,$1,$2,$3*1,1,$1,$4,$5*20,1,$1,$2,$3,$4,$5,0*%
%ADD10O,2.999994X1.9999959999999999*%
%ADD11R,1.8000X1.8000*%
%ADD12MACRO1,2X-0.0174X0.4997X0.0174X-0.4997*%
%ADD13O,1.9999959999999999X2.999994*%
%ADD14MACRO1,2X-0.4997X-0.0174X0.4997X0.0174*%
%ADD15R,1.5748X1.5748*%
%ADD16C,1.5748*%
%ADD17R,2.0000X2.0000*%

%LPD*%
D10*
G01*
X6121405Y660417D03*
G01*
X6121405Y914392D03*
G01*
X6121405Y1168392D03*
G01*
X6121405Y1422392D03*
G01*
X6121405Y1676392D03*
G01*
X6121405Y1930392D03*
G01*
X6121405Y2184392D03*
G01*
X6121405Y2438392D03*
G01*
X4318005Y2438392D03*
G01*
X4318005Y2184392D03*
G01*
X4318005Y1930392D03*
G01*
X4318005Y1676392D03*
G01*
X4318005Y1422392D03*
G01*
X4318005Y1168392D03*
G01*
X4318005Y914392D03*
D11*
G01*
X4318005Y660392D03*
D12*
G01*
X3048005Y2946392D03*
G01*
X3048005Y3962392D03*
G01*
X5105405Y2946392D03*
G01*
X5105405Y3962392D03*
G01*
X6553205Y2946392D03*
G01*
X6553205Y3962392D03*
G01*
X4064005Y2946392D03*
G01*
X4064005Y3962392D03*
D13*
G01*
X3378205Y3962392D03*
G01*
X3378205Y2946392D03*
G01*
X5372105Y2946392D03*
G01*
X5372105Y3962392D03*
G01*
X6223005Y3962392D03*
G01*
X6223005Y2946392D03*
G01*
X4394205Y3962392D03*
G01*
X4394205Y2946392D03*
D10*
G01*
X3213105Y4635492D03*
G01*
X3213105Y4381492D03*
G01*
X5232405Y4648192D03*
G01*
X5232405Y4394192D03*
G01*
X6350005Y4381492D03*
G01*
X6350005Y4635492D03*
G01*
X4216405Y4660892D03*
G01*
X4216405Y4406892D03*
D14*
G01*
X3340105Y5295892D03*
G01*
X3340105Y5041892D03*
G01*
X5410205Y5295892D03*
G01*
X5410205Y5041892D03*
G01*
X6388105Y5295892D03*
G01*
X6388105Y5041892D03*
D10*
G01*
X4368805Y5308592D03*
G01*
X4368805Y5054592D03*
D15*
G01*
X571505Y4965692D03*
D16*
G01*
X825505Y4965717D03*
G01*
X1079505Y4965717D03*
D13*
G01*
X321061Y5511792D03*
G01*
X821949Y5511792D03*
D10*
G01*
X574908Y4213268D03*
G01*
X2098908Y3959268D03*
G01*
X2098908Y3451268D03*
G01*
X2098908Y2943268D03*
G01*
X2098908Y2435268D03*
G01*
X2098908Y1927268D03*
G01*
X2098908Y1419268D03*
G01*
X2098908Y911268D03*
G01*
X574908Y657268D03*
G01*
X574908Y1165268D03*
G01*
X574908Y1673268D03*
G01*
X574908Y2181268D03*
G01*
X574908Y2689268D03*
G01*
X574908Y3197268D03*
G01*
X574908Y3705268D03*
G01*
X574908Y3959268D03*
G01*
X574908Y3451268D03*
G01*
X574908Y2943268D03*
G01*
X574908Y2435268D03*
G01*
X574908Y1927268D03*
G01*
X574908Y1419268D03*
G01*
X574908Y911268D03*
G01*
X2098908Y657268D03*
G01*
X2098908Y1165268D03*
G01*
X2098908Y1673268D03*
G01*
X2098908Y2181268D03*
G01*
X2098908Y2689268D03*
G01*
X2098908Y3197268D03*
G01*
X2098908Y3705268D03*
D17*
G01*
X2098908Y4213268D03*
D10*
G01*
X4000505Y5308592D03*
G01*
X4000505Y5054592D03*
D14*
G01*
X5041905Y5295892D03*
G01*
X5041905Y5041892D03*
G01*
X6045205Y5295892D03*
G01*
X6045205Y5041892D03*
G01*
X2971805Y5295892D03*
G01*
X2971805Y5041892D03*
D10*
G01*
X2857505Y1422392D03*
G01*
X2857505Y2184392D03*
G01*
X2857505Y1930392D03*
G01*
X2857505Y1676392D03*
G01*
X3733805Y1930392D03*
G01*
X3733805Y2438392D03*
M02*
