G04 Layer: TopLayer*
G04 EasyEDA v6.5.40, 2024-02-02 08:41:29*
G04 Gerber Generator version 0.2*
G04 Scale: 100 percent, Rotated: No, Reflected: No *
G04 Dimensions in millimeters *
G04 leading zeros omitted , absolute positions ,4 integer and 5 decimal *
%FSLAX45Y45*%
%MOMM*%

%AMMACRO1*1,1,$1,$2,$3*1,1,$1,$4,$5*20,1,$1,$2,$3,$4,$5,0*%
%ADD10C,1.2000*%
%ADD11C,1.0000*%
%ADD12C,1.5000*%
%ADD13O,2.999994X1.9999959999999999*%
%ADD14R,1.8000X1.8000*%
%ADD15MACRO1,2X-0.0174X0.4997X0.0174X-0.4997*%
%ADD16O,1.9999959999999999X2.999994*%
%ADD17MACRO1,2X-0.4997X-0.0174X0.4997X0.0174*%
%ADD18R,1.5748X1.5748*%
%ADD19C,1.5748*%
%ADD20R,2.0000X2.0000*%

%LPD*%
D10*
X574908Y3959268D02*
G01*
X939906Y3959268D01*
X939906Y4324266D01*
X2546456Y5930816D01*
X6934306Y5930816D01*
X6934306Y2946316D01*
X4330806Y2946316D01*
X6553306Y3962316D02*
G01*
X6667606Y4076616D01*
X6667606Y5295816D01*
X6388206Y5295816D01*
X4394306Y3962316D02*
G01*
X4648306Y4216316D01*
X4648306Y5308516D01*
X4368906Y5308516D01*
X5372206Y3962316D02*
G01*
X5689706Y4279816D01*
X5689706Y5295816D01*
X5410306Y5295816D01*
X3378306Y3962316D02*
G01*
X3619606Y4203616D01*
X3619606Y5295816D01*
X3340206Y5295816D01*
D11*
X4216506Y4660816D02*
G01*
X3835506Y4660816D01*
X3846428Y3682408D01*
X5981700Y3200400D02*
G01*
X5981806Y4635416D01*
X6350106Y4635416D01*
X2098908Y2435268D02*
G01*
X2832206Y2435268D01*
X2832206Y3200316D01*
X5943706Y3200316D01*
X5981700Y3200400D01*
X2098908Y3197268D02*
G01*
X2336906Y3197268D01*
X2336906Y3911516D01*
X2781406Y3911516D01*
X2781406Y4635416D01*
X3213206Y4635416D01*
X5232506Y4648116D02*
G01*
X4851506Y4648116D01*
X4864100Y3454400D01*
X4864100Y3454400D02*
G01*
X4736952Y3454316D01*
X2667106Y3454316D01*
X2667106Y2689268D01*
X2098908Y2689268D01*
X3846428Y3682408D02*
G01*
X3670152Y3683170D01*
X2502006Y3682916D01*
X2502006Y2943268D01*
X2098908Y2943268D01*
D12*
X574908Y3959268D02*
G01*
X317500Y3962400D01*
X321162Y4073060D01*
X321162Y5511716D01*
D10*
X2971906Y5295816D02*
G01*
X2971906Y5635414D01*
X2972668Y5676308D01*
X5041905Y5295892D02*
G01*
X5041905Y5641256D01*
X5041900Y5676900D01*
X6045200Y5676900D02*
G01*
X2730609Y5676818D01*
X1346309Y4292767D01*
X1346309Y2590718D01*
X6045205Y5295892D02*
G01*
X6045205Y5537207D01*
X6045200Y5676900D01*
X574908Y3451268D02*
G01*
X927206Y3441616D01*
X1346306Y2590716D01*
X1371706Y647616D01*
X1625706Y393616D01*
X4051406Y393616D01*
X4318106Y660316D01*
D11*
X2098908Y2435268D02*
G01*
X2146660Y2387516D01*
D10*
X2098908Y1165268D02*
G01*
X2102032Y1168392D01*
X4318005Y1168392D01*
D12*
X821951Y5511787D02*
G01*
X825505Y5508233D01*
X825505Y4965717D01*
X571505Y4965692D02*
G01*
X574908Y4962288D01*
X574908Y4213268D01*
D10*
X2098908Y911268D02*
G01*
X2102025Y914384D01*
X4318010Y914384D01*
X4000505Y5308592D02*
G01*
X4000505Y5642930D01*
X4034393Y5676818D01*
X4216410Y4660905D02*
G01*
X4368810Y5054592D01*
X5232410Y4648205D02*
G01*
X5410210Y5041892D01*
X6350109Y4635406D02*
G01*
X6388105Y4673401D01*
X6388105Y5041892D01*
X3213206Y4635416D02*
G01*
X3340105Y5041892D01*
X3340206Y5041816D01*
X3213107Y4381505D02*
G01*
X3213105Y4381492D01*
X3048005Y3962392D01*
X4216410Y4406892D02*
G01*
X4064010Y3962392D01*
X5232410Y4394192D02*
G01*
X5105410Y3962392D01*
X6350010Y4381492D02*
G01*
X6223010Y3962392D01*
X2098908Y2181268D02*
G01*
X2102040Y2184400D01*
X2857500Y2184400D01*
X2098908Y1927268D02*
G01*
X2102040Y1930400D01*
X2857500Y1930400D01*
X3733800Y2438400D02*
G01*
X4318010Y2438384D01*
X4318010Y1930384D02*
G01*
X3733800Y1930400D01*
X2098908Y1673268D02*
G01*
X2102040Y1676400D01*
X2857500Y1676400D01*
X2098908Y1419268D02*
G01*
X2102040Y1422400D01*
X2857500Y1422400D01*
X3048106Y2946316D02*
G01*
X4635606Y2946316D01*
X4635606Y2298616D01*
X4521306Y2184316D01*
X4318106Y2184316D01*
D13*
G01*
X6121405Y660417D03*
G01*
X6121405Y914392D03*
G01*
X6121405Y1168392D03*
G01*
X6121405Y1422392D03*
G01*
X6121405Y1676392D03*
G01*
X6121405Y1930392D03*
G01*
X6121405Y2184392D03*
G01*
X6121405Y2438392D03*
G01*
X4318005Y2438392D03*
G01*
X4318005Y2184392D03*
G01*
X4318005Y1930392D03*
G01*
X4318005Y1676392D03*
G01*
X4318005Y1422392D03*
G01*
X4318005Y1168392D03*
G01*
X4318005Y914392D03*
D14*
G01*
X4318005Y660392D03*
D15*
G01*
X3048005Y2946392D03*
G01*
X3048005Y3962392D03*
G01*
X5105405Y2946392D03*
G01*
X5105405Y3962392D03*
G01*
X6553205Y2946392D03*
G01*
X6553205Y3962392D03*
G01*
X4064005Y2946392D03*
G01*
X4064005Y3962392D03*
D16*
G01*
X3378205Y3962392D03*
G01*
X3378205Y2946392D03*
G01*
X5372105Y2946392D03*
G01*
X5372105Y3962392D03*
G01*
X6223005Y3962392D03*
G01*
X6223005Y2946392D03*
G01*
X4394205Y3962392D03*
G01*
X4394205Y2946392D03*
D13*
G01*
X3213105Y4635492D03*
G01*
X3213105Y4381492D03*
G01*
X5232405Y4648192D03*
G01*
X5232405Y4394192D03*
G01*
X6350005Y4381492D03*
G01*
X6350005Y4635492D03*
G01*
X4216405Y4660892D03*
G01*
X4216405Y4406892D03*
D17*
G01*
X3340105Y5295892D03*
G01*
X3340105Y5041892D03*
G01*
X5410205Y5295892D03*
G01*
X5410205Y5041892D03*
G01*
X6388105Y5295892D03*
G01*
X6388105Y5041892D03*
D13*
G01*
X4368805Y5308592D03*
G01*
X4368805Y5054592D03*
D18*
G01*
X571505Y4965692D03*
D19*
G01*
X825505Y4965717D03*
G01*
X1079505Y4965717D03*
D16*
G01*
X321061Y5511792D03*
G01*
X821949Y5511792D03*
D13*
G01*
X574908Y4213268D03*
G01*
X2098908Y3959268D03*
G01*
X2098908Y3451268D03*
G01*
X2098908Y2943268D03*
G01*
X2098908Y2435268D03*
G01*
X2098908Y1927268D03*
G01*
X2098908Y1419268D03*
G01*
X2098908Y911268D03*
G01*
X574908Y657268D03*
G01*
X574908Y1165268D03*
G01*
X574908Y1673268D03*
G01*
X574908Y2181268D03*
G01*
X574908Y2689268D03*
G01*
X574908Y3197268D03*
G01*
X574908Y3705268D03*
G01*
X574908Y3959268D03*
G01*
X574908Y3451268D03*
G01*
X574908Y2943268D03*
G01*
X574908Y2435268D03*
G01*
X574908Y1927268D03*
G01*
X574908Y1419268D03*
G01*
X574908Y911268D03*
G01*
X2098908Y657268D03*
G01*
X2098908Y1165268D03*
G01*
X2098908Y1673268D03*
G01*
X2098908Y2181268D03*
G01*
X2098908Y2689268D03*
G01*
X2098908Y3197268D03*
G01*
X2098908Y3705268D03*
D20*
G01*
X2098908Y4213268D03*
D13*
G01*
X4000505Y5308592D03*
G01*
X4000505Y5054592D03*
D17*
G01*
X5041905Y5295892D03*
G01*
X5041905Y5041892D03*
G01*
X6045205Y5295892D03*
G01*
X6045205Y5041892D03*
G01*
X2971805Y5295892D03*
G01*
X2971805Y5041892D03*
D13*
G01*
X2857505Y1422392D03*
G01*
X2857505Y2184392D03*
G01*
X2857505Y1930392D03*
G01*
X2857505Y1676392D03*
G01*
X3733805Y1930392D03*
G01*
X3733805Y2438392D03*
M02*
